<svg width="50" height="50" viewBox="0 0 50 50" fill="none" xmlns="http://www.w3.org/2000/svg">
<rect width="50" height="50" rx="10" fill="#5AC268"/>
<path d="M35 19.5H29" stroke="white" stroke-width="1.5" stroke-miterlimit="10" stroke-linecap="round" stroke-linejoin="round"/>
<path d="M19 19.5H15" stroke="white" stroke-width="1.5" stroke-miterlimit="10" stroke-linecap="round" stroke-linejoin="round"/>
<path d="M23 23C24.933 23 26.5 21.433 26.5 19.5C26.5 17.567 24.933 16 23 16C21.067 16 19.5 17.567 19.5 19.5C19.5 21.433 21.067 23 23 23Z" stroke="white" stroke-width="1.5" stroke-miterlimit="10" stroke-linecap="round" stroke-linejoin="round"/>
<path d="M35 30.5H31" stroke="white" stroke-width="1.5" stroke-miterlimit="10" stroke-linecap="round" stroke-linejoin="round"/>
<path d="M21 30.5H15" stroke="white" stroke-width="1.5" stroke-miterlimit="10" stroke-linecap="round" stroke-linejoin="round"/>
<path d="M27 34C28.933 34 30.5 32.433 30.5 30.5C30.5 28.567 28.933 27 27 27C25.067 27 23.5 28.567 23.5 30.5C23.5 32.433 25.067 34 27 34Z" stroke="white" stroke-width="1.5" stroke-miterlimit="10" stroke-linecap="round" stroke-linejoin="round"/>
</svg>
