<svg width="24" height="24" viewBox="0 0 24 24" fill="none" xmlns="http://www.w3.org/2000/svg">
<path fill-rule="evenodd" clip-rule="evenodd" d="M8.48671 6.87095C8.48671 4.95928 10.0309 3.40779 11.9499 3.40779C13.86 3.40779 15.4123 4.95954 15.413 6.86952C15.4045 8.73213 13.9498 10.2412 12.116 10.3236C12.0051 10.3155 11.8875 10.3159 11.7761 10.3237C9.94056 10.2421 8.48671 8.73207 8.48671 6.87095ZM11.9499 2C9.25131 2 7.07892 4.18385 7.07892 6.87095C7.07892 9.50199 9.15268 11.6443 11.7667 11.7321C11.7958 11.7331 11.825 11.7323 11.854 11.7296C11.9171 11.7239 11.9847 11.7245 12.03 11.729C12.0611 11.7321 12.0924 11.7332 12.1237 11.7321C14.7382 11.6442 16.8099 9.50213 16.8208 6.87389L16.8208 6.87095C16.8208 4.18281 14.638 2 11.9499 2ZM17.1929 13.9064C15.7668 12.9539 13.9214 12.4998 12.1117 12.4998C10.3018 12.4998 8.45282 12.954 7.01834 13.9051L7.01576 13.9069C5.73434 14.7647 5 15.9629 5 17.2499C5 18.5371 5.73459 19.7333 7.01673 20.5865C8.44713 21.5433 10.2945 22 12.1046 22C13.9151 22 15.7629 21.5431 17.1934 20.586L17.1935 20.5859C18.475 19.7281 19.2093 18.5299 19.2093 17.2428C19.2093 15.9557 18.4748 14.7597 17.1929 13.9064ZM6.40779 17.2499C6.40779 16.5405 6.80871 15.74 7.79759 15.0776C8.95332 14.3118 10.5153 13.9076 12.1117 13.9076C13.7089 13.9076 15.2656 14.3121 16.411 15.0771L16.4121 15.0778C17.4007 15.7356 17.8015 16.5336 17.8015 17.2428C17.8015 17.9525 17.4002 18.7534 16.4104 19.416C15.26 20.1857 13.7009 20.5922 12.1046 20.5922C10.5083 20.5922 8.94918 20.1857 7.79875 19.4159L7.79721 19.4149C6.80855 18.7571 6.40779 17.9591 6.40779 17.2499Z" fill="#101811"/>
</svg>
